<svg viewBox="0 0 60 59.999" xmlns="http://www.w3.org/2000/svg" xmlns:xlink="http://www.w3.org/1999/xlink" width="60.000000" height="59.999023" fill="none" customFrame="#000000">
	<path id="Vector" d="M45.8817 0L45.8817 17.2233L26.2584 36.8465C25.2702 37.8348 24.7055 39.1759 24.7055 40.5876L24.7055 52.9404L37.0583 52.9404C38.47 52.9404 39.8112 52.3757 40.7994 51.3875L45.8817 46.3052L45.8817 59.9991L0 59.9991L0 0L45.8817 0ZM49.9263 18.1656C50.6181 17.4739 51.7333 17.4739 52.4251 18.1656L59.4838 25.2243C60.1721 25.9126 60.1721 27.0278 59.4838 27.7196L38.3077 48.8957C37.9759 49.224 37.5277 49.4111 37.0583 49.4111L28.2349 49.4111L28.2349 40.5876C28.2349 40.1182 28.4219 39.67 28.7502 39.3418L49.9263 18.1656ZM21.1762 35.2936L10.5881 35.2936L10.5881 38.823L21.1762 38.823L21.1762 35.2936ZM28.2349 28.2349L10.5881 28.2349L10.5881 31.7642L28.2348 31.7642L28.2348 28.2349L28.2349 28.2349ZM51.1757 21.9067L48.3769 24.7055L52.9404 29.269L55.7392 26.4702L51.1757 21.9067ZM35.2936 10.5881L10.5881 10.5881L10.5881 21.1762L35.2936 21.1762L35.2936 10.5881L35.2936 10.5881Z" fill="rgb(35.0182,166.287,240.125)" fill-rule="evenodd" />
</svg>
