<svg viewBox="0 0 60 60" xmlns="http://www.w3.org/2000/svg" xmlns:xlink="http://www.w3.org/1999/xlink" width="60.000000" height="60.000000" fill="none">
	<rect id="support_svgrepo.com" width="60.000000" height="60.000000" x="0.000000" y="0.000000" fill="rgb(255,255,255)" fill-opacity="0" />
	<path id="Vector" d="M45 5L15 5C10.85 5 7.5 8.325 7.5 12.425L7.5 39.7C7.5 43.8 10.85 47.125 15 47.125L16.9 47.125C18.9 47.125 20.8 47.9 22.2 49.3L26.475 53.525C28.425 55.45 31.6 55.45 33.55 53.525L37.825 49.3C39.225 47.9 41.15 47.125 43.125 47.125L45 47.125C49.15 47.125 52.5 43.8 52.5 39.7L52.5 12.425C52.5 8.325 49.15 5 45 5ZM25.95 32.525C26.975 32.525 27.825 33.375 27.825 34.4C27.825 35.425 26.975 36.275 25.95 36.275L19.25 36.275C18.15 36.275 17.125 35.75 16.475 34.85C15.85 34 15.7 32.95 16 31.95C16.875 29.275 19.025 27.825 20.925 26.525C22.925 25.175 24.05 24.325 24.05 22.875C24.05 21.575 23 20.525 21.7 20.525C20.4 20.525 19.375 21.6 19.375 22.9C19.375 23.925 18.525 24.775 17.5 24.775C16.475 24.775 15.625 23.925 15.625 22.9C15.625 19.55 18.35 16.8 21.725 16.8C25.1 16.8 27.825 19.525 27.825 22.9C27.825 26.425 25.175 28.225 23.05 29.675C21.725 30.575 20.475 31.425 19.85 32.55L25.95 32.55L25.95 32.525ZM42.5 32.7L41.975 32.7L41.975 34.425C41.975 35.45 41.125 36.3 40.1 36.3C39.075 36.3 38.225 35.45 38.225 34.425L38.225 32.7L33.325 32.7C33.325 32.7 33.325 32.7 33.3 32.7C32.075 32.7 30.95 32.05 30.325 31C29.7 29.925 29.7 28.6 30.325 27.55C32.025 24.625 34 21.3 35.8 18.4C36.6 17.125 38.125 16.55 39.55 16.95C40.975 17.375 41.975 18.675 41.95 20.175L41.95 28.975L42.5 28.975C43.525 28.975 44.375 29.825 44.375 30.85C44.375 31.875 43.525 32.7 42.5 32.7Z" fill="rgb(35.0182,166.287,240.125)" fill-rule="nonzero" />
	<path id="Vector" d="M38.2227 28.9515L38.2227 21.6016C36.7477 24.0016 35.2227 26.5765 33.8477 28.9265L38.2227 28.9265L38.2227 28.9515Z" fill="rgb(35.0182,166.287,240.125)" fill-rule="nonzero" />
</svg>
