<svg viewBox="0 0 60 60" xmlns="http://www.w3.org/2000/svg" xmlns:xlink="http://www.w3.org/1999/xlink" width="60.000000" height="60.000000" fill="none">
	<rect id="microphone-speaker_svgrepo.com" width="60.000000" height="60.000000" x="0.000000" y="0.000000" fill="rgb(255,255,255)" fill-opacity="0" />
	<g id="Group">
		<g id="Group">
			<path id="Vector" d="M57.5 47.4967L32.5 47.4967L32.5 28.8742L35.1475 31.5217C35.635 32.0092 36.2749 32.2517 36.915 32.2517C37.555 32.2517 38.195 32.0092 38.6825 31.5217L47.7 22.5042C48.17 22.0342 48.4325 21.3993 48.4325 20.7367C48.4325 20.0717 48.17 19.4367 47.7 18.9692L47.175 18.4417C48.0675 17.9842 48.9125 17.4292 49.635 16.7067C53.4475 12.8892 53.4475 6.67925 49.635 2.86421C45.815 -0.95083 39.61 -0.95083 35.7925 2.86421C35.0674 3.58667 34.5199 4.43675 34.0624 5.32925L33.5299 4.79675C32.5549 3.81929 30.9724 3.81929 29.995 4.79675L20.9775 13.8142C20.5075 14.2842 20.245 14.9192 20.245 15.5817C20.245 16.2442 20.5075 16.8817 20.9775 17.3493L23.7775 20.1492L8.93754 36.0317C6.96504 38.1416 7.02 41.3917 9.06 43.4342L9.06 43.4366C10.105 44.4816 11.4675 45.0041 12.83 45.0041C14.1326 45.0041 15.435 44.5266 16.4651 43.5617L20 40.2592L20 47.4967L2.49996 47.4967C1.11996 47.4967 0 48.6167 0 49.9967L0 57.4967C0 58.8767 1.11996 59.9966 2.49996 59.9966L57.4999 59.9966C58.8824 59.9966 59.9999 58.8767 59.9999 57.4967L59.9999 49.9967C60 48.6167 58.8825 47.4967 57.5 47.4967ZM39.3275 6.39917C41.1975 4.53167 44.235 4.53167 46.1 6.39917C47.9651 8.26667 47.9651 11.3042 46.1 13.1692C45.335 13.9342 44.3351 14.4092 43.2675 14.5342L37.965 9.23171C38.09 8.16413 38.5625 7.16417 39.3275 6.39917ZM13.0525 39.9092C12.9199 40.0316 12.7225 40.0241 12.595 39.9017C12.4725 39.7742 12.4699 39.5741 12.5875 39.4442L27.315 23.6891L28.81 25.1841L13.0525 39.9092Z" fill="rgb(35.0182,166.287,240.125)" fill-rule="nonzero" />
		</g>
	</g>
</svg>
